<svg width="22" height="22" viewBox="0 0 22 22" fill="none" xmlns="http://www.w3.org/2000/svg">
<path d="M10.4228 0C5.87727 0 2.17706 3.70021 2.17706 8.24569C2.17706 8.7632 2.2245 9.28503 2.32369 9.79392C2.328 9.8241 2.34525 9.91467 2.37976 10.0699C2.50482 10.6262 2.69026 11.1739 2.93177 11.6958C3.82016 13.7874 5.77377 17.0003 10.0605 20.4417C10.1683 20.528 10.2977 20.5711 10.4271 20.5711C10.5564 20.5711 10.6858 20.528 10.7936 20.4417C15.076 17.0003 17.034 13.7874 17.9224 11.6958C18.1639 11.1739 18.3493 10.6306 18.4744 10.0699C18.5089 9.91467 18.5261 9.8241 18.5304 9.79392C18.6253 9.28503 18.6771 8.7632 18.6771 8.24569C18.6684 3.70021 14.9682 0 10.4228 0ZM17.3747 9.59122C17.3747 9.59985 17.3703 9.60847 17.3703 9.6171C17.366 9.63866 17.3531 9.70335 17.3315 9.80254C17.3315 9.80685 17.3315 9.80685 17.3315 9.81117C17.2237 10.2942 17.0642 10.7643 16.8528 11.2171C16.8485 11.2214 16.8485 11.23 16.8442 11.2343C16.0378 13.1448 14.2696 16.0601 10.4228 19.2385C6.57591 16.0601 4.80775 13.1448 4.00129 11.2343C3.99698 11.23 3.99698 11.2214 3.99267 11.2171C3.78566 10.7686 3.6261 10.2942 3.51397 9.81117C3.51397 9.80685 3.51397 9.80685 3.51397 9.80254C3.48809 9.70335 3.47947 9.63866 3.47516 9.6171C3.47516 9.60847 3.47084 9.59985 3.47084 9.58691C3.38459 9.14271 3.34146 8.6942 3.34146 8.24138C3.34146 4.33848 6.51985 1.16009 10.4228 1.16009C14.3257 1.16009 17.504 4.33848 17.504 8.24138C17.504 8.69851 17.4609 9.15134 17.3747 9.59122Z" fill="black"/>
<path d="M10.4227 3.10023C7.53762 3.10023 5.18726 5.45059 5.18726 8.33572C5.18726 11.2209 7.53762 13.5712 10.4227 13.5712C13.3079 13.5712 15.6582 11.2209 15.6582 8.33572C15.6582 5.45059 13.3079 3.10023 10.4227 3.10023ZM10.4227 12.4068C8.17589 12.4068 6.35166 10.5783 6.35166 8.33572C6.35166 6.09317 8.1802 4.26463 10.4227 4.26463C12.6653 4.26463 14.4938 6.09317 14.4938 8.33572C14.4938 10.5783 12.6696 12.4068 10.4227 12.4068Z" fill="black"/>
</svg>
