<svg width="175" height="59" viewBox="0 0 175 59" fill="none" xmlns="http://www.w3.org/2000/svg">
<path d="M46.7754 23.3154C46.2424 25.3885 44.9594 26.4212 42.9326 26.4212H33.5858L30.6292 36.5185H24.9951L27.9516 26.4212H23.1233C17.8301 34.2925 12.667 38.232 7.61552 38.232C6.14656 38.232 4.90693 37.8955 3.90283 37.2223C2.63221 36.3655 2 35.111 2 33.4511C2 32.0436 2.47106 30.659 3.41938 29.3127C4.93792 27.1479 7.24363 25.5491 10.3303 24.5164C12.7414 23.7132 15.4066 23.3154 18.3259 23.3154H21.3816L30.9205 9.19441H38.5071L34.4473 23.3154H46.7754ZM19.2494 26.4212C15.3136 26.4212 12.5554 27.1173 10.9687 28.5171C9.65471 29.6799 9.0039 30.9191 9.0039 32.2272C9.0039 33.344 9.47496 33.8948 10.4233 33.8948C11.7249 33.8948 13.3488 32.9921 15.3012 31.1792C17.0057 29.611 18.3259 28.0276 19.2494 26.4212ZM32.1044 12.4149L25.2121 23.3154H28.7202L32.1044 12.4149Z" fill="#FF0000"/>
<path d="M64.9857 33.413C64.8927 34.4075 64.4651 35.1954 63.7089 35.7614C63.0395 36.2663 62.2461 36.5187 61.335 36.5187H52.7568C51.4676 36.5187 50.8044 35.7002 50.7734 34.0556C51.2568 33.8108 51.7465 33.5737 52.2361 33.3365C52.9303 32.9464 53.451 32.4721 53.8105 31.9214C54.2939 31.187 54.5356 30.2385 54.5356 29.0834C54.5356 28.372 54.2691 27.7448 53.7361 27.2016C53.203 26.6585 52.608 26.3984 51.9572 26.4214L47.0297 44H41.315L48.4119 18.6112H54.108L52.8002 23.308C55.1617 23.308 56.7236 23.4457 57.4922 23.7135C59.3578 24.3484 60.2565 25.8324 60.1822 28.1578C60.1388 29.1905 59.7669 30.2385 59.0665 31.2865C58.3413 32.3727 57.5108 33.0765 56.5624 33.4054H64.9857V33.413Z" fill="#FF0000"/>
<path d="M84.6392 33.4131C84.4099 34.4228 83.9264 35.203 83.1888 35.7615C82.5194 36.2663 81.7385 36.5188 80.8459 36.5188H71.369C69.5653 36.5188 68.0468 36.1439 66.8196 35.3943C65.2638 34.4457 64.4891 33.0229 64.4891 31.1182C64.4891 30.9117 64.5015 30.6975 64.5201 30.4756C64.7308 28.1578 65.7039 26.3449 67.4456 25.0368C68.9765 23.8817 70.7864 23.308 72.8751 23.308H76.8419C77.7345 23.308 78.4969 23.6599 79.1229 24.356C79.7551 25.0521 80.065 25.9089 80.065 26.9186C80.065 27.9436 79.7489 28.808 79.1105 29.5194C78.4783 30.2309 77.7159 30.5904 76.8358 30.5904C75.9432 30.5904 75.187 30.2309 74.561 29.5118C73.935 28.7927 73.6313 27.913 73.6375 26.8804V26.4137H71.7347L70.5075 30.7051C70.4021 31.0647 70.3525 31.4012 70.3525 31.6919C70.3525 32.8317 71.0839 33.3978 72.5404 33.3978H84.6392V33.4131Z" fill="#FF0000"/>
<path d="M147.501 33.4131C146.999 35.4861 145.71 36.5188 143.646 36.5188H137.684C135.985 36.5188 135.136 35.8456 135.136 34.4993C133.989 36.1057 132.589 36.9089 130.921 36.9089C129.694 36.9089 128.696 36.4423 127.934 35.5091C127.172 34.5758 126.787 33.3595 126.787 31.8602C126.787 29.1523 127.624 27.0181 129.304 25.4499C130.822 24.0271 132.706 23.3157 134.956 23.3157H143.944L140.987 33.4131H147.501ZM137.349 26.4214H133.872L132.768 30.9499C132.706 31.233 132.675 31.4931 132.675 31.7302C132.675 32.8547 133.568 33.4207 135.353 33.4207L137.349 26.4214Z" fill="#FF0000"/>
<path d="M169.821 33.8032C169.548 34.9429 168.947 35.7844 168.011 36.3275C167.348 36.7176 166.641 36.9089 165.885 36.9089H159.607C158.169 36.9089 157.45 36.3275 157.45 35.1571C157.45 34.767 157.524 34.3157 157.673 33.7955L158.869 29.6189L153.458 35.2719C152.187 36.3581 151.146 36.9012 150.328 36.9012H147.433L159.898 25.0521C161.199 23.744 162.606 23.1168 164.131 23.1703C165.16 23.2239 165.674 23.897 165.674 25.1898C165.674 25.6717 165.588 26.2072 165.42 26.8038L163.387 33.7955H169.821V33.8032Z" fill="#FF0000"/>
<path d="M120.199 33.4131L123.068 23.3157H117.385L115.252 30.7281H111.565L113.678 23.3157H110.784H108.001L104.238 36.5264H107.133H109.916L110.802 33.4054H114.484V33.4131C114.335 33.9333 114.261 34.3846 114.261 34.7747C114.261 35.9374 114.98 36.5264 116.418 36.5264H122.696C123.453 36.5264 124.159 36.3352 124.822 35.9451C125.758 35.402 126.359 34.5605 126.632 33.4207H120.199V33.4131Z" fill="#FF0000"/>
<path d="M92.6478 33.4131C91.2842 33.4131 90.6025 32.8853 90.6025 31.8373C90.6025 31.6154 90.6396 31.3707 90.714 31.1029L90.8566 30.5981H93.6271H98.8336C99.9678 29.6801 100.507 28.525 100.457 27.1405C100.396 25.7712 99.6889 24.7462 98.3501 24.073C97.3398 23.5682 96.1746 23.3157 94.842 23.3157H92.5611C90.4971 23.3157 88.712 23.9124 87.2121 25.1057C85.4704 26.4903 84.6027 28.4027 84.6027 30.8352C84.6027 34.6294 87.1501 36.5264 92.2512 36.5264H101.015C101.92 36.5264 102.72 36.274 103.42 35.7691C104.207 35.2031 104.709 34.4152 104.933 33.4207H92.6478V33.4131ZM95.3192 26.4214L94.1664 29.2594H91.2161L91.997 26.4214H95.3192Z" fill="#FF0000"/>
<path d="M56.8848 10.411L58.7381 4.36788C58.8434 4.03895 58.893 3.73297 58.893 3.45758C58.893 2.97566 58.7381 2.61614 58.4282 2.3637C58.2236 2.19541 58.0377 2.11127 57.8517 2.11127C57.3993 2.10362 57.046 2.18776 56.8043 2.3637C56.6617 2.4708 56.3828 2.79208 55.9613 3.31224L52.9738 7.01461L54.4799 2.18776C54.5915 1.83589 54.6535 1.52226 54.6535 1.23922C54.6535 0.787901 54.5109 0.443672 54.2258 0.214187C54.0337 0.0764952 53.8601 0 53.6866 0C53.0854 0 52.5957 0.145341 52.2176 0.443672C51.9883 0.619611 51.666 1.00974 51.2383 1.61405L45.2819 9.53131H40.2242L39.5424 11.9409H43.4658H44.4637H45.0402C45.66 11.9409 46.131 11.6961 46.4534 11.2142L51.2383 4.0772L49.3293 10.1586C49.2363 10.4492 49.1867 10.717 49.1867 10.9618C49.1867 11.6043 49.4842 11.9715 50.0731 12.0556C50.1784 12.0786 50.2776 12.0862 50.3706 12.0862C50.8602 12.0862 51.3127 11.8032 51.728 11.2372L55.577 6.02782L54.2878 10.1662C54.1762 10.5181 54.1267 10.8011 54.1267 11.0153C54.1267 11.6349 54.5605 11.9409 55.4283 11.9409H58.2112C59.4323 11.9409 60.1513 11.4284 60.3682 10.411H56.8848Z" fill="#89703F"/>
<path d="M70.8473 10.411C70.5436 11.436 69.9734 11.9409 69.1304 11.9409H67.24C66.7875 13.4479 66.3164 14.5647 65.8206 15.2914C65.1264 16.3011 64.2648 16.806 63.2359 16.806C62.5913 16.806 62.0893 16.5765 61.736 16.1099C61.4323 15.7045 61.2773 15.1767 61.2773 14.5264C61.2773 14.0139 61.3641 13.5244 61.5438 13.0424C61.7236 12.5605 61.9591 12.1933 62.2442 11.9409H61.6554C61.3145 11.9409 61.0294 11.8109 60.8063 11.5508C60.5831 11.2907 60.4716 10.9694 60.4716 10.5793C60.4716 10.4033 60.4964 10.2198 60.5521 10.0362L61.9033 5.43115H64.7173L63.2669 10.411H64.8413L66.2669 5.43115H69.0684L67.6428 10.411H70.8473ZM64.3516 12.201C64.0107 12.201 63.6946 12.4381 63.4033 12.9124C63.112 13.3867 62.9632 13.8609 62.9632 14.3352C62.9632 14.7559 63.112 15.0925 63.4157 15.3526L64.3516 12.201Z" fill="#89703F"/>
<path d="M126.204 10.4107C126.067 10.9691 125.77 11.3898 125.311 11.6575C124.983 11.8488 124.635 11.9482 124.264 11.9482H121.171C120.464 11.9482 120.111 11.6575 120.111 11.0838C120.111 10.8926 120.148 10.6708 120.222 10.4107L120.811 8.35298L118.14 11.1374C117.514 11.6728 116.999 11.9406 116.596 11.9406H115.171L121.313 6.09639C121.952 5.45383 122.652 5.14021 123.402 5.1708C123.91 5.19375 124.164 5.53033 124.164 6.16523C124.164 6.40237 124.121 6.6701 124.04 6.96078L123.043 10.4107H126.204Z" fill="#89703F"/>
<path d="M104.747 10.4466C104.616 11.005 104.319 11.4257 103.854 11.6935C103.526 11.8847 103.179 11.9841 102.807 11.9841H99.7571C99.0505 11.9841 98.6972 11.6476 98.6972 10.9668C98.6972 10.7526 98.7344 10.5231 98.8088 10.2783L99.6084 7.60863C99.3728 7.91461 98.4183 8.97789 96.7634 10.8061C96.3543 11.2651 96.0444 11.5634 95.8337 11.7088C95.5548 11.8923 95.22 11.9841 94.8234 11.9841H93.6643L96.9679 0.433411H99.7633L97.6993 7.58569L100.792 3.78389H102.577L100.78 6.07874H101.369C102.088 6.07874 102.447 6.42296 102.447 7.10377C102.447 7.31795 102.404 7.57039 102.323 7.86107L101.561 10.4466H104.747Z" fill="#89703F"/>
<path d="M114.906 10.411C114.658 11.4361 114.026 11.9409 113.003 11.9409H110.065C109.228 11.9409 108.807 11.612 108.807 10.9465C108.243 11.7421 107.548 12.1322 106.73 12.1322C106.123 12.1322 105.633 11.9027 105.255 11.4437C104.877 10.9847 104.691 10.3881 104.691 9.64607C104.691 8.31504 105.106 7.2594 105.931 6.48679C106.681 5.78303 107.61 5.43115 108.714 5.43115H113.145L111.689 10.411H114.906ZM109.904 6.96107H108.187L107.641 9.19475C107.61 9.33244 107.592 9.46248 107.592 9.57723C107.592 10.1356 108.032 10.411 108.912 10.411L109.904 6.96107Z" fill="#89703F"/>
<path d="M132.663 5.07951C132.025 5.07951 131.473 5.48493 131.008 6.29578C131.175 6.41817 131.355 6.53291 131.535 6.64766C131.771 6.8389 131.901 7.06838 131.919 7.34376C131.956 7.71094 131.814 8.16991 131.498 8.74362C131.299 9.0955 130.996 9.40148 130.587 9.66921C130.171 9.93695 129.812 10.067 129.496 10.0517L131.907 1.3848H129.093L126.149 11.9641L129.068 11.9564C130.233 11.9564 131.039 11.8876 131.492 11.7575C132.589 11.4439 133.599 10.4418 134.045 9.18729C135.266 5.68382 132.663 5.07951 132.663 5.07951Z" fill="#89703F"/>
<path d="M90.8754 10.4265L91.8733 6.98424C92.053 6.36463 92.1646 5.72207 91.96 5.45433C91.7679 5.2019 91.4456 5.07951 90.9993 5.07951H86.6359C85.9975 5.07951 85.4458 5.48493 84.981 6.29578C85.1483 6.41817 85.3281 6.53291 85.5078 6.64766C85.7433 6.8389 85.8735 7.06838 85.8921 7.34376C85.9293 7.71094 85.7867 8.16991 85.4706 8.74362C85.2723 9.0955 84.9686 9.40148 84.5595 9.66921C84.1442 9.93695 83.7847 10.067 83.4686 10.0517L85.8797 1.3848H83.0657L80.1216 11.9641L83.041 11.9564C84.2062 11.9564 85.012 11.8876 85.4644 11.7575C86.5615 11.4439 87.4106 10.3347 88.018 9.18729C88.2846 8.67478 88.3837 8.16226 88.3279 7.64209C88.2722 7.10663 88.0552 6.75475 87.6771 6.60176H89.1647L88.6688 8.36115L88.08 10.4189C88.0057 10.6713 87.9685 10.9008 87.9685 11.092C87.9685 11.6657 88.3218 11.9564 89.0283 11.9564H92.1212C92.4931 11.9564 92.8402 11.857 93.1687 11.6657C93.6273 11.398 93.9248 10.9849 94.0612 10.4189H90.8754V10.4265Z" fill="#89703F"/>
<path d="M156.191 10.4261L157.189 6.97618C157.368 6.35657 157.48 5.71401 157.275 5.44628C157.083 5.19384 156.761 5.07145 156.315 5.07145H151.951C151.313 5.07145 150.761 5.47688 150.296 6.28772C150.464 6.41012 150.643 6.52486 150.823 6.6396C151.059 6.83084 151.189 7.06032 151.207 7.33571C151.245 7.70288 151.102 8.16185 150.786 8.73557C150.588 9.08744 150.284 9.39342 149.875 9.66116C149.46 9.92889 149.1 10.0589 148.784 10.0436L151.195 1.37674H148.381L145.437 11.956L148.356 11.9484C149.522 11.9484 150.327 11.8795 150.78 11.7495C151.877 11.4358 152.726 10.3267 153.333 9.17924C153.6 8.66672 153.699 8.1542 153.643 7.63404C153.588 7.09857 153.371 6.74669 152.993 6.5937H154.48L153.984 8.35309L153.395 10.4108C153.321 10.6632 153.284 10.8927 153.284 11.084C153.284 11.6577 153.637 11.9484 154.344 11.9484H157.437C157.808 11.9484 158.156 11.8489 158.484 11.6577C158.943 11.3899 159.24 10.9769 159.377 10.4108H156.191V10.4261Z" fill="#89703F"/>
<path d="M76.7115 10.4342C76.7115 10.4342 77.0152 10.1741 77.3251 9.72281C77.4243 9.58512 77.5234 9.44743 77.6102 9.30209C77.6722 9.20264 77.728 9.09555 77.7838 8.98846C78.3602 7.84868 78.416 6.95368 77.9387 6.31112C77.7652 6.07399 77.5296 5.8904 77.2507 5.74506C76.6619 5.30904 72.9368 5.45438 72.9368 5.45438C72.4968 5.45438 72.1249 5.63032 71.8088 5.97454C71.4927 6.31877 71.3439 6.7395 71.3439 7.23672C71.3439 7.74159 71.4989 8.16996 71.815 8.52184C72.1311 8.87372 72.503 9.04965 72.9368 9.04965C73.3769 9.04965 73.7488 8.87372 74.0587 8.52184C74.3686 8.16996 74.5174 7.73394 74.5112 7.22142V6.99193H75.4161C75.4161 6.99193 75.3975 7.08373 75.3665 7.22907L74.4492 10.4342C74.4492 10.4342 71.8398 11.0844 71.158 13.0657C70.9906 13.5476 70.8915 14.0371 70.8915 14.5497C70.8915 15.1922 71.0464 15.72 71.3501 16.1331C71.7034 16.5997 72.1993 16.8292 72.8501 16.8292C73.879 16.8292 74.7405 16.3244 75.4347 15.3146C75.9305 14.5879 76.6185 12.8362 76.2404 11.9641H78.7445C79.5812 11.9641 80.1514 11.4516 80.4613 10.4342H76.7115ZM73.0174 15.3758C72.7199 15.1234 72.565 14.7792 72.565 14.3584C72.565 13.8842 72.7137 13.4099 73.005 12.9356C73.2963 12.4613 73.6124 12.2242 73.9533 12.2242L73.0174 15.3758Z" fill="#89703F"/>
<path d="M142.517 10.411L143.931 5.43115H141.129L140.081 9.08761H138.265L139.307 5.43115H137.881H136.505L134.652 11.9409H136.077H137.453L137.893 10.4033H139.71V10.411C139.635 10.6634 139.598 10.8929 139.598 11.0841C139.598 11.6578 139.951 11.9485 140.658 11.9485H143.751C144.123 11.9485 144.47 11.8491 144.798 11.6578C145.257 11.3901 145.554 10.977 145.691 10.411H142.517Z" fill="#89703F"/>
<path d="M166.982 10.365L167.98 6.91511C168.061 6.62443 168.104 6.3567 168.104 6.11957C168.104 5.48466 167.85 5.14808 167.342 5.12513C166.592 5.10218 165.897 5.40816 165.253 6.05072L162.885 8.44501L163.772 5.38522H160.97L159.606 10.1279C159.526 10.4186 159.482 10.6863 159.482 10.9234C159.482 11.5584 159.743 11.8184 160.245 11.9179C161.199 12.1091 162.377 10.7858 162.377 10.7858L164.757 8.29967L164.168 10.3574C164.094 10.6098 164.057 10.8393 164.057 11.0305C164.057 11.6042 164.41 11.8949 165.117 11.8949H168.209C168.581 11.8949 168.928 11.7955 169.257 11.6042C169.716 11.3365 170.013 10.9234 170.149 10.3574H166.982V10.365Z" fill="#89703F"/>
<path d="M165.419 3.96179C166.094 3.96179 166.64 3.28091 166.64 2.44099C166.64 1.60107 166.094 0.920181 165.419 0.920181C164.745 0.920181 164.198 1.60107 164.198 2.44099C164.198 3.28091 164.745 3.96179 165.419 3.96179Z" fill="#89703F"/>
<path d="M169.939 17.423H38.2531L38.8729 15.0925H170.559L169.939 17.423Z" fill="#89703F"/>
<path d="M1.69434 48.8906L4.31641 55.165L6.94824 48.8906H7.74902V56H7.14844V52.9043L7.19727 49.7305L4.55078 56H4.08691L1.4502 49.7549L1.49902 52.8848V56H0.898438V48.8906H1.69434ZM12.749 56C12.6904 55.834 12.653 55.5882 12.6367 55.2627C12.4316 55.5296 12.1696 55.7363 11.8506 55.8828C11.5348 56.026 11.1995 56.0977 10.8447 56.0977C10.3369 56.0977 9.92513 55.9561 9.60938 55.6729C9.29688 55.3896 9.14062 55.0316 9.14062 54.5986C9.14062 54.0843 9.35384 53.6774 9.78027 53.3779C10.21 53.0785 10.8073 52.9287 11.5723 52.9287H12.6318V52.3281C12.6318 51.9505 12.5146 51.6543 12.2803 51.4395C12.0492 51.2214 11.7106 51.1123 11.2646 51.1123C10.8577 51.1123 10.5208 51.2165 10.2539 51.4248C9.98698 51.6331 9.85352 51.8838 9.85352 52.1768L9.26758 52.1719C9.26758 51.752 9.46289 51.389 9.85352 51.083C10.2441 50.7738 10.7243 50.6191 11.2939 50.6191C11.8831 50.6191 12.347 50.7673 12.6855 51.0635C13.0273 51.3564 13.2031 51.7666 13.2129 52.2939V54.7939C13.2129 55.305 13.2666 55.6875 13.374 55.9414V56H12.749ZM10.9131 55.5801C11.3037 55.5801 11.652 55.4857 11.958 55.2969C12.2673 55.1081 12.4919 54.8558 12.6318 54.54V53.3779H11.5869C11.0042 53.3844 10.5485 53.4919 10.2197 53.7002C9.89095 53.9053 9.72656 54.1885 9.72656 54.5498C9.72656 54.846 9.83561 55.0918 10.0537 55.2871C10.2751 55.4824 10.5615 55.5801 10.9131 55.5801ZM18.0664 51.2197H15.3955V56H14.8096V50.7168H18.0664V51.2197ZM22.3291 56C22.2705 55.834 22.2331 55.5882 22.2168 55.2627C22.0117 55.5296 21.7497 55.7363 21.4307 55.8828C21.1149 56.026 20.7796 56.0977 20.4248 56.0977C19.917 56.0977 19.5052 55.9561 19.1895 55.6729C18.877 55.3896 18.7207 55.0316 18.7207 54.5986C18.7207 54.0843 18.9339 53.6774 19.3604 53.3779C19.79 53.0785 20.3874 52.9287 21.1523 52.9287H22.2119V52.3281C22.2119 51.9505 22.0947 51.6543 21.8604 51.4395C21.6292 51.2214 21.2907 51.1123 20.8447 51.1123C20.4378 51.1123 20.1009 51.2165 19.834 51.4248C19.5671 51.6331 19.4336 51.8838 19.4336 52.1768L18.8477 52.1719C18.8477 51.752 19.043 51.389 19.4336 51.083C19.8242 50.7738 20.3044 50.6191 20.874 50.6191C21.4632 50.6191 21.9271 50.7673 22.2656 51.0635C22.6074 51.3564 22.7832 51.7666 22.793 52.2939V54.7939C22.793 55.305 22.8467 55.6875 22.9541 55.9414V56H22.3291ZM20.4932 55.5801C20.8838 55.5801 21.2321 55.4857 21.5381 55.2969C21.8473 55.1081 22.0719 54.8558 22.2119 54.54V53.3779H21.167C20.5843 53.3844 20.1286 53.4919 19.7998 53.7002C19.471 53.9053 19.3066 54.1885 19.3066 54.5498C19.3066 54.846 19.4157 55.0918 19.6338 55.2871C19.8551 55.4824 20.1416 55.5801 20.4932 55.5801ZM27.4512 52.1133C27.4512 51.7943 27.3324 51.5485 27.0947 51.376C26.8571 51.2035 26.5299 51.1172 26.1133 51.1172C25.7357 51.1172 25.4118 51.2148 25.1416 51.4102C24.8747 51.6022 24.7412 51.8464 24.7412 52.1426H24.1602C24.1602 51.7031 24.3473 51.3402 24.7217 51.0537C25.0993 50.7673 25.5632 50.624 26.1133 50.624C26.7188 50.624 27.1908 50.7542 27.5293 51.0146C27.8678 51.2751 28.0371 51.6445 28.0371 52.123C28.0371 52.377 27.959 52.6064 27.8027 52.8115C27.6465 53.0166 27.4186 53.1761 27.1191 53.29C27.7962 53.4756 28.1348 53.8955 28.1348 54.5498C28.1348 55.0251 27.9508 55.401 27.583 55.6777C27.2152 55.9544 26.7269 56.0928 26.1182 56.0928C25.529 56.0928 25.0407 55.9447 24.6533 55.6484C24.266 55.3522 24.0723 54.9648 24.0723 54.4863H24.6582C24.6582 54.8053 24.7982 55.0723 25.0781 55.2871C25.3613 55.4987 25.708 55.6045 26.1182 55.6045C26.5641 55.6045 26.9124 55.5117 27.1631 55.3262C27.417 55.1374 27.5439 54.8818 27.5439 54.5596C27.5439 54.2048 27.4284 53.9492 27.1973 53.793C26.9661 53.6367 26.613 53.5586 26.1377 53.5586H25.332V53.0508H26.2354C27.0459 53.0312 27.4512 52.7188 27.4512 52.1133ZM32.8955 50.7168H33.4814V56H32.8955V51.6592L30.0439 56H29.4629V50.7168H30.0439V55.0625L32.8955 50.7168ZM39.1064 56H38.5205V53.5781H35.6738V56H35.0879V50.7168H35.6738V53.085H38.5205V50.7168H39.1064V56ZM46.0303 55.209L48.1299 50.7168H48.8525V56H48.2666V51.6641L46.2354 56H45.8203L43.75 51.5664V56H43.1689V50.7168H43.9355L46.0303 55.209ZM52.0947 55.1602L53.6377 50.7168H54.2676L52.0117 56.8984L51.8945 57.1719C51.6048 57.8132 51.1572 58.1338 50.5518 58.1338C50.4118 58.1338 50.262 58.111 50.1025 58.0654L50.0977 57.582L50.4004 57.6113C50.6868 57.6113 50.918 57.5397 51.0938 57.3965C51.2728 57.2565 51.4242 57.014 51.5479 56.6689L51.8066 55.9561L49.8145 50.7168H50.4541L52.0947 55.1602ZM58.2715 52.1133C58.2715 51.7943 58.1527 51.5485 57.915 51.376C57.6774 51.2035 57.3503 51.1172 56.9336 51.1172C56.556 51.1172 56.2321 51.2148 55.9619 51.4102C55.695 51.6022 55.5615 51.8464 55.5615 52.1426H54.9805C54.9805 51.7031 55.1676 51.3402 55.542 51.0537C55.9196 50.7673 56.3835 50.624 56.9336 50.624C57.5391 50.624 58.0111 50.7542 58.3496 51.0146C58.6882 51.2751 58.8574 51.6445 58.8574 52.123C58.8574 52.377 58.7793 52.6064 58.623 52.8115C58.4668 53.0166 58.2389 53.1761 57.9395 53.29C58.6165 53.4756 58.9551 53.8955 58.9551 54.5498C58.9551 55.0251 58.7712 55.401 58.4033 55.6777C58.0355 55.9544 57.5472 56.0928 56.9385 56.0928C56.3493 56.0928 55.861 55.9447 55.4736 55.6484C55.0863 55.3522 54.8926 54.9648 54.8926 54.4863H55.4785C55.4785 54.8053 55.6185 55.0723 55.8984 55.2871C56.1816 55.4987 56.5283 55.6045 56.9385 55.6045C57.3844 55.6045 57.7327 55.5117 57.9834 55.3262C58.2373 55.1374 58.3643 54.8818 58.3643 54.5596C58.3643 54.2048 58.2487 53.9492 58.0176 53.793C57.7865 53.6367 57.4333 53.5586 56.958 53.5586H56.1523V53.0508H57.0557C57.8662 53.0312 58.2715 52.7188 58.2715 52.1133ZM60.8887 52.6357H62.4121C62.8027 52.6357 63.1445 52.7074 63.4375 52.8506C63.7337 52.9906 63.9567 53.1859 64.1064 53.4365C64.2594 53.6872 64.3359 53.9785 64.3359 54.3105C64.3359 54.8216 64.1602 55.2318 63.8086 55.541C63.4603 55.847 62.9883 56 62.3926 56H60.3076V50.7168H60.8887V52.6357ZM60.8887 53.1338V55.5068H62.4023C62.8223 55.5068 63.151 55.401 63.3887 55.1895C63.6296 54.9779 63.75 54.6882 63.75 54.3203C63.75 53.9688 63.6328 53.6855 63.3984 53.4707C63.1673 53.2526 62.8499 53.1403 62.4463 53.1338H60.8887ZM66.1279 56H65.542V50.7168H66.1279V56ZM69.1895 53.5781H68.3789V56H67.7881V50.7168H68.3789V53.0605H69.1797L71.1182 50.7168H71.8555L69.6875 53.2803L72.0947 56H71.3232L69.1895 53.5781ZM76.2744 56C76.2158 55.834 76.1784 55.5882 76.1621 55.2627C75.957 55.5296 75.695 55.7363 75.376 55.8828C75.0602 56.026 74.7249 56.0977 74.3701 56.0977C73.8623 56.0977 73.4505 55.9561 73.1348 55.6729C72.8223 55.3896 72.666 55.0316 72.666 54.5986C72.666 54.0843 72.8792 53.6774 73.3057 53.3779C73.7354 53.0785 74.3327 52.9287 75.0977 52.9287H76.1572V52.3281C76.1572 51.9505 76.04 51.6543 75.8057 51.4395C75.5745 51.2214 75.236 51.1123 74.79 51.1123C74.3831 51.1123 74.0462 51.2165 73.7793 51.4248C73.5124 51.6331 73.3789 51.8838 73.3789 52.1768L72.793 52.1719C72.793 51.752 72.9883 51.389 73.3789 51.083C73.7695 50.7738 74.2497 50.6191 74.8193 50.6191C75.4085 50.6191 75.8724 50.7673 76.2109 51.0635C76.5527 51.3564 76.7285 51.7666 76.7383 52.2939V54.7939C76.7383 55.305 76.792 55.6875 76.8994 55.9414V56H76.2744ZM74.4385 55.5801C74.8291 55.5801 75.1774 55.4857 75.4834 55.2969C75.7926 55.1081 76.0173 54.8558 76.1572 54.54V53.3779H75.1123C74.5296 53.3844 74.0739 53.4919 73.7451 53.7002C73.4163 53.9053 73.252 54.1885 73.252 54.5498C73.252 54.846 73.361 55.0918 73.5791 55.2871C73.8005 55.4824 74.0869 55.5801 74.4385 55.5801ZM82.3633 50.7168V56H81.7773V51.2197H79.6143L79.5215 53.1973C79.4824 53.9297 79.4092 54.4896 79.3018 54.877C79.1943 55.2611 79.0348 55.5443 78.8232 55.7266C78.6117 55.9089 78.3301 56 77.9785 56H77.7539V55.4824L77.9346 55.4727C78.2699 55.4661 78.5107 55.3034 78.6572 54.9844C78.8037 54.6654 78.8997 54.0957 78.9453 53.2754L79.0527 50.7168H82.3633ZM84.5801 52.6357H86.1035C86.4941 52.6357 86.8359 52.7074 87.1289 52.8506C87.4251 52.9906 87.6481 53.1859 87.7979 53.4365C87.9508 53.6872 88.0273 53.9785 88.0273 54.3105C88.0273 54.8216 87.8516 55.2318 87.5 55.541C87.1517 55.847 86.6797 56 86.084 56H83.999V50.7168H84.5801V52.6357ZM84.5801 53.1338V55.5068H86.0938C86.5137 55.5068 86.8424 55.401 87.0801 55.1895C87.321 54.9779 87.4414 54.6882 87.4414 54.3203C87.4414 53.9688 87.3242 53.6855 87.0898 53.4707C86.8587 53.2526 86.5413 53.1403 86.1377 53.1338H84.5801ZM93.3447 56H92.7588V53.5781H89.9121V56H89.3262V50.7168H89.9121V53.085H92.7588V50.7168H93.3447V56ZM95.5566 52.6357H97.0801C97.4707 52.6357 97.8125 52.7074 98.1055 52.8506C98.4017 52.9906 98.6247 53.1859 98.7744 53.4365C98.9274 53.6872 99.0039 53.9785 99.0039 54.3105C99.0039 54.8216 98.8281 55.2318 98.4766 55.541C98.1283 55.847 97.6562 56 97.0605 56H94.9756V50.7168H95.5566V52.6357ZM95.5566 53.1338V55.5068H97.0703C97.4902 55.5068 97.819 55.401 98.0566 55.1895C98.2975 54.9779 98.418 54.6882 98.418 54.3203C98.418 53.9688 98.3008 53.6855 98.0664 53.4707C97.8353 53.2526 97.5179 53.1403 97.1143 53.1338H95.5566ZM100.796 56H100.21V50.7168H100.796V56ZM104.082 52.8604L105.508 50.7168H106.201L104.409 53.3096L106.279 56H105.591L104.087 53.7637L102.583 56H101.895L103.76 53.3096L101.968 50.7168H102.656L104.082 52.8604ZM113.188 50.7168H113.774V56H113.188V51.6592L110.337 56H109.756V50.7168H110.337V55.0625L113.188 50.7168ZM119.399 56H118.813V53.5781H115.967V56H115.381V50.7168H115.967V53.085H118.813V50.7168H119.399V56ZM122.92 55.6045C123.327 55.6045 123.667 55.4906 123.94 55.2627C124.217 55.0316 124.367 54.7337 124.39 54.3691H124.951C124.935 54.6914 124.834 54.986 124.648 55.2529C124.463 55.5166 124.215 55.7233 123.906 55.873C123.6 56.0228 123.271 56.0977 122.92 56.0977C122.227 56.0977 121.676 55.8568 121.27 55.375C120.866 54.8932 120.664 54.2454 120.664 53.4316V53.2559C120.664 52.735 120.755 52.2744 120.938 51.874C121.12 51.4736 121.38 51.1644 121.719 50.9463C122.061 50.7282 122.459 50.6191 122.915 50.6191C123.494 50.6191 123.971 50.7917 124.346 51.1367C124.723 51.4818 124.925 51.9359 124.951 52.499H124.39C124.364 52.0856 124.214 51.752 123.94 51.498C123.67 51.2441 123.328 51.1172 122.915 51.1172C122.388 51.1172 121.978 51.3076 121.685 51.6885C121.395 52.0693 121.25 52.6032 121.25 53.29V53.4609C121.25 54.1348 121.395 54.6605 121.685 55.0381C121.978 55.4157 122.389 55.6045 122.92 55.6045ZM129.917 51.2148H127.993V56H127.407V51.2148H125.557V50.7168H129.917V51.2148ZM135.127 53.4121C135.127 54.2357 134.945 54.89 134.58 55.375C134.215 55.8568 133.727 56.0977 133.115 56.0977C132.393 56.0977 131.839 55.8438 131.455 55.3359V58.0312H130.874V50.7168H131.416L131.445 51.4639C131.826 50.9007 132.378 50.6191 133.101 50.6191C133.732 50.6191 134.227 50.8584 134.585 51.3369C134.946 51.8154 135.127 52.4795 135.127 53.3291V53.4121ZM134.541 53.3096C134.541 52.6357 134.403 52.1035 134.126 51.7129C133.849 51.3223 133.464 51.127 132.969 51.127C132.611 51.127 132.303 51.2132 132.046 51.3857C131.789 51.5583 131.592 51.8089 131.455 52.1377V54.6719C131.595 54.9746 131.795 55.2057 132.056 55.3652C132.316 55.5247 132.624 55.6045 132.979 55.6045C133.47 55.6045 133.853 55.4092 134.126 55.0186C134.403 54.6247 134.541 54.055 134.541 53.3096ZM138.042 55.1602L139.585 50.7168H140.215L137.959 56.8984L137.842 57.1719C137.552 57.8132 137.104 58.1338 136.499 58.1338C136.359 58.1338 136.209 58.111 136.05 58.0654L136.045 57.582L136.348 57.6113C136.634 57.6113 136.865 57.5397 137.041 57.3965C137.22 57.2565 137.371 57.014 137.495 56.6689L137.754 55.9561L135.762 50.7168H136.401L138.042 55.1602ZM144.048 55.209L146.147 50.7168H146.87V56H146.284V51.6641L144.253 56H143.838L141.768 51.5664V56H141.187V50.7168H141.953L144.048 55.209ZM150.483 56.0977C150.034 56.0977 149.627 55.987 149.263 55.7656C148.901 55.5443 148.62 55.2367 148.418 54.8428C148.216 54.4456 148.115 54.0013 148.115 53.5098V53.2998C148.115 52.792 148.213 52.3346 148.408 51.9277C148.607 51.5208 148.882 51.2018 149.233 50.9707C149.585 50.7363 149.966 50.6191 150.376 50.6191C151.017 50.6191 151.525 50.8389 151.899 51.2783C152.277 51.7145 152.466 52.3118 152.466 53.0703V53.3975H148.696V53.5098C148.696 54.1087 148.867 54.6084 149.209 55.0088C149.554 55.4059 149.987 55.6045 150.508 55.6045C150.82 55.6045 151.095 55.5475 151.333 55.4336C151.574 55.3197 151.792 55.1374 151.987 54.8867L152.354 55.165C151.924 55.7868 151.3 56.0977 150.483 56.0977ZM150.376 51.1172C149.937 51.1172 149.565 51.2783 149.263 51.6006C148.963 51.9229 148.781 52.3558 148.716 52.8994H151.885V52.8359C151.868 52.3281 151.724 51.9147 151.45 51.5957C151.177 51.2767 150.819 51.1172 150.376 51.1172ZM157.661 56H157.075V53.5781H154.229V56H153.643V50.7168H154.229V53.085H157.075V50.7168H157.661V56ZM163.022 51.2148H161.099V56H160.513V51.2148H158.662V50.7168H163.022V51.2148ZM163.457 53.2803C163.457 52.7725 163.555 52.3151 163.75 51.9082C163.949 51.5013 164.227 51.1855 164.585 50.9609C164.946 50.7331 165.355 50.6191 165.811 50.6191C166.514 50.6191 167.083 50.8665 167.52 51.3613C167.956 51.8529 168.174 52.5055 168.174 53.3193V53.4414C168.174 53.9525 168.075 54.4131 167.876 54.8232C167.681 55.2301 167.404 55.5443 167.046 55.7656C166.688 55.987 166.279 56.0977 165.82 56.0977C165.12 56.0977 164.551 55.8519 164.111 55.3604C163.675 54.8656 163.457 54.2113 163.457 53.3975V53.2803ZM164.043 53.4414C164.043 54.0729 164.206 54.5921 164.531 54.999C164.86 55.4027 165.29 55.6045 165.82 55.6045C166.348 55.6045 166.774 55.4027 167.1 54.999C167.428 54.5921 167.593 54.0566 167.593 53.3926V53.2803C167.593 52.8766 167.518 52.5072 167.368 52.1719C167.218 51.8366 167.008 51.5778 166.738 51.3955C166.468 51.21 166.159 51.1172 165.811 51.1172C165.29 51.1172 164.865 51.3223 164.536 51.7324C164.207 52.1393 164.043 52.6732 164.043 53.334V53.4414ZM169.448 56V50.7168H171.387C172.057 50.7168 172.572 50.8372 172.93 51.0781C173.288 51.3158 173.467 51.6657 173.467 52.1279C173.467 52.3916 173.387 52.6276 173.228 52.8359C173.068 53.041 172.835 53.1908 172.529 53.2852C172.874 53.3503 173.151 53.4984 173.359 53.7295C173.571 53.9606 173.677 54.2292 173.677 54.5352C173.677 55.0007 173.504 55.362 173.159 55.6191C172.817 55.873 172.332 56 171.704 56H169.448ZM170.029 53.5684V55.5117H171.724C172.163 55.5117 172.502 55.4271 172.739 55.2578C172.977 55.0885 173.096 54.8444 173.096 54.5254C173.096 54.2324 172.977 53.9997 172.739 53.8271C172.502 53.6546 172.163 53.5684 171.724 53.5684H170.029ZM170.029 53.0801H171.509C172.427 53.0671 172.886 52.7546 172.886 52.1426C172.886 51.8203 172.759 51.5859 172.505 51.4395C172.254 51.2897 171.882 51.2148 171.387 51.2148H170.029V53.0801Z" fill="black"/>
</svg>
